<svg version="1.1" xmlns="http://www.w3.org/2000/svg" viewBox="-1448.5709596496586 -2745.3536116059686 8197.017039898763 5863.157120677417"><desc>Created with Snap</desc><defs></defs><g><g transform="matrix(19.4977,0,0,19.4977,-1249.6111,-3713.3236)">
<g id="gSkuik4rr21ky">
	<g>
		<path d="M387.88501,83.59349V316.4075H12.115V83.59349H387.88501 M391.96945,79.50903H8.03054v240.98294h383.9389V79.50903
			L391.96945,79.50903z" fill="#c7d3d4" style=""></path>
		<path d="M38.30037,67.71037l353.83911,50.25497l-30.43997,214.32426L7.86052,282.03564L38.30037,67.71037 M36.56565,65.4009
			L5.55142,283.77075l357.88281,50.82834l31.01434-218.36884L36.56565,65.4009L36.56565,65.4009z" fill="#c7d3d4" style=""></path>
		<path d="M361.69949,67.71037l30.43997,214.32527L38.30037,332.28961L7.86052,117.96535L361.69949,67.71037 M363.43423,65.4009
			L5.55142,116.23025l31.01422,218.36884l357.88293-50.82834L363.43423,65.4009L363.43423,65.4009z" fill="#c7d3d4" style=""></path>
	</g>
</g>


<desc>Created with Snap</desc><defs></defs></g><g><g transform="matrix(1,0,0,-1,0,0)"><path d="M622 504Q624 493 623 481Q623 469 622 458Q622 446 619 438Q617 431 617 423Q617 417 619 411Q622 406 622 400Q622 393 620 385Q619 378 624 371Q625 366 621 365Q618 364 617 361Q615 352 616 344Q618 336 610 328Q612 321 615 319Q611 316 612 311Q613 307 613 303Q613 300 610 296Q608 293 608 291L603 257L608 248Q603 243 604 240Q606 238 606 235Q606 233 603 226Q600 219 599 216Q597 206 597 196Q597 186 597 177Q597 174 594 172Q592 170 590 168Q591 151 585 142Q579 134 579 121Q579 116 581 113Q583 110 585 105Q589 94 588 80Q588 66 588 55Q588 50 584 49Q581 49 579 47Q579 43 577 41Q575 39 574 36Q567 34 561 30Q556 26 551 21Q546 19 543 21Q540 24 535 23Q531 19 533 15Q536 12 535 8Q530 6 527 2Q524 -1 519 -3Q514 -2 507 -1Q501 1 495 3Q490 6 486 10Q482 14 481 21Q473 24 465 29Q458 34 449 36Q448 39 449 41Q451 43 451 45Q451 48 449 52Q447 56 440 62Q442 68 435 73Q428 78 426 81Q422 90 418 92Q415 94 413 96Q411 106 403 119Q395 133 385 135Q384 143 379 150Q374 158 372 166Q370 170 366 172Q362 175 358 177Q359 184 357 186Q355 188 353 190Q351 193 350 197Q350 201 347 205Q343 214 339 215Q335 216 333 218Q333 226 330 230Q328 235 325 238Q322 242 319 246Q317 250 317 257Q315 259 310 264Q306 270 300 276Q295 282 290 287Q286 292 285 293Q286 301 283 302Q280 304 278 306Q276 310 277 313Q278 317 274 322Q273 336 266 344Q260 353 258 361Q256 365 257 369Q258 374 256 378Q254 380 251 382Q249 384 251 391Q249 395 245 397Q242 400 240 404Q238 408 237 411Q237 415 235 419Q233 421 231 423Q230 425 228 428Q224 441 220 444Q217 447 215 452Q213 454 213 457Q214 460 212 462Q206 470 206 474Q206 478 199 480Q199 488 195 496Q191 505 183 508Q183 516 179 520Q176 524 172 530Q169 538 164 544Q160 550 156 558Q152 557 153 552Q154 548 149 549Q154 541 153 530Q153 520 153 511Q153 506 155 501Q157 496 158 491Q156 481 156 477Q157 474 153 469Q153 465 155 462Q158 460 158 457Q158 454 156 449Q154 445 158 443Q156 429 159 420Q162 411 162 402Q160 386 161 379Q162 372 162 365Q162 361 164 358Q167 356 169 354Q168 351 167 346Q167 342 162 341Q165 339 165 336Q165 333 165 330Q165 327 168 323Q172 320 172 316Q171 303 174 302Q175 297 172 297Q169 297 169 293Q171 289 172 285Q174 281 176 276Q176 261 172 246Q169 232 169 218Q169 213 170 208Q172 203 172 198Q172 192 167 185Q171 170 171 151Q171 147 174 146Q178 145 178 141Q178 130 175 117Q173 105 181 96Q179 94 179 89Q179 85 176 83Q175 78 179 77Q183 77 181 73Q178 70 177 65Q177 60 177 55Q177 50 176 45Q176 41 172 38Q176 28 172 20Q169 13 162 5Q153 4 152 10Q152 16 149 21Q140 19 131 16Q122 13 117 5Q99 3 89 9Q79 16 79 27Q79 33 80 39Q82 45 83 51Q84 62 83 75Q83 88 87 99Q84 101 84 106Q84 111 81 114Q82 115 83 121Q85 127 85 133Q86 140 86 146Q87 152 87 155Q87 160 85 165Q84 171 84 176Q82 192 86 199Q90 206 90 213Q90 216 88 218Q87 221 87 224Q87 227 88 229Q90 232 90 235Q90 238 87 240Q85 243 85 246Q85 250 85 254Q86 258 90 261Q87 264 86 269Q85 274 84 278Q84 283 83 287Q82 291 78 293Q80 306 81 320Q83 334 76 345Q81 356 81 373Q81 391 76 402Q79 409 80 417Q81 426 81 434Q81 440 78 445Q76 451 76 455Q78 462 77 463Q76 465 76 467Q76 470 76 478Q76 486 78 488Q78 491 76 493Q74 496 74 499Q74 502 75 504Q76 507 76 510Q76 514 75 517Q74 520 74 523Q74 533 75 543Q77 553 71 562Q75 568 76 571Q75 574 74 577Q74 580 69 579Q74 586 74 599Q74 621 69 634Q64 648 63 658Q62 669 69 680Q76 691 101 709Q112 708 123 708Q135 708 144 701Q147 688 149 685Q152 683 153 677Q164 672 175 669Q186 667 197 662Q201 659 203 655Q206 652 210 649Q213 642 214 635Q215 628 224 625Q223 616 225 612Q228 609 231 601Q233 597 233 592Q234 587 240 588Q239 583 240 580Q241 578 242 573Q247 566 250 562Q253 559 256 551Q258 546 263 544Q268 542 267 534Q275 528 276 523Q277 518 274 519Q279 513 285 508L285 495Q286 493 289 487Q293 482 297 476Q301 470 304 465Q308 461 310 460Q307 458 309 453Q311 449 310 445Q312 440 315 437Q318 434 322 430Q323 423 326 416Q329 410 335 406Q337 401 334 400Q332 399 331 395Q341 387 346 375Q352 363 363 354Q368 340 372 334Q376 329 381 324Q380 316 384 314Q388 313 390 311Q388 303 392 297Q396 292 401 287Q405 283 405 277Q406 272 408 267Q414 263 414 260Q414 258 417 257Q417 252 417 245Q418 238 426 237L426 226Q435 221 441 213Q448 205 458 200Q461 192 465 183Q469 174 479 170Q481 162 485 155Q490 149 494 142Q497 143 498 148Q499 153 499 160Q500 167 501 175Q503 183 508 190L508 205Q510 210 512 214Q515 219 519 222Q514 228 516 234Q519 241 519 248Q519 251 518 254Q517 258 517 261Q517 284 523 306Q530 329 530 352Q530 360 527 366Q524 373 524 380Q524 389 528 397Q533 406 533 413Q531 425 533 429Q536 434 536 439Q536 443 533 445Q531 447 531 452Q531 456 534 458Q537 461 538 465Q534 472 536 479Q538 487 535 493Q537 506 534 507Q532 508 531 517Q529 529 531 541Q534 554 534 567Q534 578 526 582Q529 588 527 595Q526 602 526 609Q526 616 529 621Q532 626 532 631Q536 634 536 637Q536 640 538 642Q539 656 537 670Q536 685 535 699Q542 699 547 704Q552 710 556 714Q561 719 566 721Q572 724 581 718Q587 717 589 720Q592 723 597 722Q602 718 607 715Q612 713 617 709Q616 702 620 698Q624 695 626 690Q628 684 627 677Q626 670 626 664Q626 661 627 658Q629 656 629 653Q629 641 624 629Q620 618 620 605Q621 601 619 599Q617 598 617 595Q617 587 619 587Q622 588 624 584Q620 579 622 571Q624 564 620 560Q622 558 621 552Q621 547 626 547Q621 542 623 532Q625 522 629 517Q629 511 627 509Q625 508 622 504ZM1178 487Q1172 482 1165 472Q1159 462 1153 460Q1151 459 1148 459Q1145 460 1142 460Q1137 460 1135 458Q1133 456 1129 455Q1122 459 1115 460Q1108 461 1101 465Q1095 465 1092 462Q1089 459 1084 459Q1079 459 1074 461Q1070 463 1066 458Q1047 464 1027 466Q1008 469 989 474Q981 470 973 470Q966 471 958 469Q955 468 952 466Q949 465 946 465Q942 465 939 466Q936 467 932 467Q926 467 920 464Q914 462 908 462Q903 462 900 464Q897 467 892 462Q889 467 885 464Q882 462 879 460Q863 460 857 461Q852 463 845 462Q845 455 845 442Q845 429 845 415Q846 402 846 390Q846 379 845 375Q848 368 855 368Q863 368 868 368Q882 362 896 361Q911 361 925 361Q930 361 933 362Q937 363 942 363Q946 363 954 361Q963 360 971 359Q980 359 986 361Q993 363 993 371Q1004 373 1008 367Q1013 361 1018 361Q1023 361 1025 365Q1027 369 1031 371Q1035 371 1036 367Q1037 364 1044 364Q1050 364 1057 368Q1065 373 1073 363Q1080 361 1083 363Q1086 365 1092 366Q1099 354 1108 343Q1117 333 1122 320Q1119 320 1115 317Q1111 314 1108 309Q1105 305 1103 301Q1101 297 1102 294Q1096 289 1089 284Q1083 280 1075 280Q1067 280 1065 283Q1064 286 1059 286Q1054 286 1050 284Q1047 283 1043 283Q1038 283 1032 284Q1027 286 1021 286Q1014 286 1007 283Q1001 281 994 281Q989 281 985 283Q982 285 978 286Q971 287 965 287Q959 288 952 288Q947 288 943 285Q940 283 935 283Q930 283 924 284Q919 286 914 286Q910 286 907 285Q904 284 901 284Q883 282 872 280Q861 279 850 276Q851 265 851 254Q852 243 857 233Q857 230 854 229Q852 228 852 223Q860 213 861 201Q863 190 862 178Q861 166 860 154Q859 142 864 130Q861 122 859 115Q858 109 859 101Q866 91 877 91Q882 91 886 91Q890 92 895 92Q899 92 902 91Q905 90 909 90Q921 90 933 91Q945 93 957 93Q961 93 964 92Q968 92 972 92Q979 92 985 93Q992 95 999 95Q1004 95 1008 93Q1012 92 1017 92Q1026 92 1034 95Q1043 98 1052 98Q1054 98 1057 97Q1060 97 1062 97Q1067 97 1069 101Q1071 106 1073 107Q1078 108 1083 109Q1088 110 1093 111Q1097 112 1099 108Q1102 105 1103 102Q1112 101 1117 96Q1123 91 1131 90Q1133 85 1136 81Q1139 78 1144 78Q1142 70 1146 61Q1140 59 1135 54Q1131 49 1126 47Q1127 41 1128 35Q1129 30 1128 23Q1126 21 1122 21Q1119 22 1116 22Q1109 22 1107 17Q1106 13 1101 13Q1098 15 1093 15Q1088 15 1083 15Q1078 15 1073 15Q1069 15 1066 17Q1060 17 1056 14Q1052 12 1048 8Q1038 12 1029 9Q1021 6 1013 1Q1009 5 1005 5Q1002 5 997 4Q997 7 994 9Q992 12 991 15Q974 12 957 13Q940 15 923 10Q914 15 901 15Q889 15 880 8Q872 12 863 8Q854 5 845 5Q832 8 829 5Q827 3 824 3Q819 3 814 3Q810 3 805 5Q800 12 796 12Q793 12 789 14Q788 22 780 29Q772 36 767 41Q770 43 773 44Q777 46 777 50Q770 60 769 64Q769 68 769 72Q770 77 769 81Q769 86 765 89Q775 92 775 96Q775 110 771 122Q767 134 767 148Q775 156 774 159Q774 163 774 173Q774 184 775 193Q777 203 768 211Q770 221 768 230Q767 240 767 250Q767 262 769 273Q772 285 772 297Q772 304 769 307Q767 310 767 313Q770 326 768 329Q766 333 765 338Q763 353 764 369Q766 385 766 401Q766 412 762 426Q759 440 761 446Q759 449 758 453Q757 457 753 459Q759 467 752 473Q746 480 746 488Q746 497 749 503Q753 509 749 519Q758 523 769 526Q774 531 775 534Q776 538 786 538Q803 538 819 535Q835 533 852 530Q856 531 859 531Q862 532 865 534Q873 530 880 530Q887 531 893 533Q900 535 906 537Q913 540 920 540Q928 540 935 538Q942 537 950 537Q976 537 1002 540Q1029 544 1055 542Q1064 537 1062 533Q1066 535 1069 536Q1073 537 1078 537Q1090 537 1105 536Q1121 536 1132 533Q1138 527 1142 526Q1147 524 1151 522Q1155 521 1160 519Q1164 517 1167 515Q1171 514 1175 512Q1182 502 1177 497Q1173 493 1178 487ZM1692 471Q1691 461 1696 458Q1702 456 1702 448Q1702 447 1695 442Q1688 437 1686 435Q1673 438 1663 432Q1654 426 1649 423Q1643 427 1637 425Q1631 423 1625 423Q1615 423 1606 426Q1598 430 1589 430Q1586 430 1583 429Q1580 428 1576 428Q1561 436 1552 433Q1543 430 1536 438Q1528 434 1519 433Q1511 433 1505 428Q1497 431 1489 429Q1481 428 1473 431Q1466 425 1469 422Q1473 419 1473 414Q1470 411 1469 407Q1469 404 1469 400Q1470 397 1469 393Q1468 389 1464 386Q1468 381 1469 375Q1471 369 1472 363Q1473 357 1474 351Q1475 346 1480 342Q1475 332 1478 322Q1482 312 1486 303Q1489 295 1488 287Q1488 280 1493 273Q1488 264 1490 258Q1492 253 1495 247Q1498 242 1500 237Q1503 232 1505 231Q1504 225 1502 216Q1501 208 1503 203Q1502 192 1503 186Q1504 181 1506 175Q1508 170 1509 164Q1511 159 1508 150Q1509 146 1510 142Q1511 138 1515 136Q1515 133 1512 131Q1509 130 1508 125Q1513 112 1520 102Q1518 91 1520 86Q1522 81 1523 71Q1520 66 1516 61Q1512 57 1508 52Q1509 35 1507 20Q1506 6 1485 4Q1478 3 1478 -6Q1471 -5 1467 -8Q1463 -11 1458 -11Q1454 -5 1451 -6Q1448 -7 1443 -7Q1439 -7 1432 1Q1425 9 1417 11Q1420 17 1418 20Q1417 24 1415 27Q1414 30 1414 33Q1414 36 1419 40Q1414 54 1416 68Q1419 83 1414 97Q1423 106 1421 120Q1419 134 1419 145Q1419 149 1420 152Q1421 156 1421 161Q1421 169 1417 174Q1413 180 1411 187Q1413 207 1411 225Q1410 243 1399 260Q1398 265 1399 267Q1401 270 1401 275Q1399 279 1398 283Q1397 288 1392 290Q1396 302 1395 310Q1395 318 1392 324Q1390 331 1387 336Q1384 342 1384 348Q1384 351 1385 354Q1387 357 1387 360Q1387 364 1384 367Q1381 371 1381 374Q1384 388 1381 393Q1379 398 1379 403Q1379 407 1379 410Q1380 413 1380 416Q1380 424 1373 430Q1367 436 1359 436Q1350 436 1341 433Q1333 430 1324 430Q1310 430 1296 431Q1283 432 1269 430Q1263 429 1257 426Q1251 423 1245 423Q1239 423 1233 426Q1228 430 1222 430Q1217 442 1207 449Q1197 456 1188 464Q1184 477 1189 483Q1194 489 1198 500Q1204 504 1210 508Q1217 512 1221 518Q1227 515 1234 514Q1241 513 1247 509Q1252 510 1256 512Q1261 514 1266 514Q1271 514 1275 511Q1279 509 1284 509Q1289 509 1294 512Q1299 515 1304 517Q1309 512 1315 512Q1322 513 1328 514Q1335 515 1341 515Q1347 516 1351 511Q1356 513 1359 516Q1363 519 1367 522Q1378 520 1388 514Q1399 509 1411 509Q1415 509 1418 510Q1421 512 1425 512Q1431 512 1437 510Q1443 509 1448 508Q1454 507 1459 508Q1465 509 1471 514Q1476 511 1480 508Q1485 505 1490 502Q1507 505 1525 503Q1543 501 1560 509Q1565 508 1569 507Q1573 507 1577 504Q1586 510 1596 509Q1606 508 1613 514Q1621 518 1624 517Q1627 517 1630 517Q1645 524 1651 522Q1658 521 1663 526Q1672 522 1677 518Q1683 514 1694 514Q1696 509 1701 501Q1706 494 1706 489Q1706 481 1701 478Q1696 476 1692 471ZM2309 51Q2305 37 2308 21Q2303 13 2294 7Q2286 1 2278 -4Q2268 -3 2258 0Q2249 4 2239 6Q2236 13 2230 17Q2225 21 2222 27Q2219 32 2218 41Q2218 50 2217 59Q2216 68 2213 75Q2211 82 2205 84Q2206 94 2195 108Q2184 122 2179 132Q2171 137 2165 144Q2159 152 2154 160Q2144 158 2141 163Q2139 168 2132 166Q2132 169 2130 171Q2129 174 2128 176Q2119 184 2109 190Q2100 196 2092 204Q2087 204 2082 202Q2078 201 2075 207Q2070 207 2066 204Q2063 202 2060 202Q2057 202 2054 203Q2052 204 2049 204Q2038 204 2026 203Q2015 203 2004 199Q2002 201 1999 204Q1996 207 1994 207Q1992 207 1981 201Q1971 196 1963 195Q1949 193 1930 192Q1911 191 1901 178Q1896 180 1890 179Q1884 179 1883 172Q1877 173 1874 174Q1872 176 1866 174Q1861 164 1866 156Q1871 148 1873 139Q1874 131 1874 115Q1874 99 1882 94Q1879 87 1878 80Q1877 73 1877 65Q1877 62 1878 59Q1880 57 1880 53Q1880 48 1877 44Q1875 41 1876 36Q1869 34 1868 27Q1867 21 1867 16Q1859 16 1853 13Q1848 11 1842 8Q1837 5 1831 4Q1825 3 1817 6Q1808 19 1793 30Q1794 34 1792 38Q1791 43 1786 43Q1787 54 1784 59Q1781 64 1776 73Q1776 79 1779 84Q1782 90 1784 95Q1782 105 1781 116Q1780 127 1774 135Q1774 139 1775 141Q1776 144 1776 147Q1776 154 1773 162Q1770 170 1768 178Q1766 186 1765 193Q1765 200 1770 204Q1762 212 1761 218Q1761 225 1759 235Q1757 240 1755 243Q1753 247 1751 252Q1749 262 1750 272Q1752 283 1747 293Q1746 295 1745 297Q1744 300 1744 303Q1744 308 1745 312Q1746 316 1746 321Q1746 342 1745 363Q1744 384 1744 405Q1744 409 1744 412Q1745 415 1745 418Q1745 423 1742 428Q1746 439 1742 449Q1738 460 1732 470Q1734 475 1733 481Q1733 487 1733 492Q1733 503 1738 506Q1744 509 1744 517Q1756 518 1763 532Q1770 532 1774 535Q1779 539 1785 541Q1791 535 1800 535Q1807 535 1813 537Q1819 540 1826 541Q1835 543 1844 542Q1853 541 1863 541Q1868 541 1872 542Q1877 544 1882 544Q1885 544 1888 542Q1891 541 1895 541Q1909 541 1922 545Q1936 549 1949 541Q1957 543 1961 544Q1966 546 1974 541Q1979 543 1983 543Q1987 544 1992 546Q1999 546 2005 543Q2011 541 2018 541Q2023 541 2027 542Q2031 544 2036 544Q2047 544 2056 540Q2066 536 2078 539Q2086 533 2097 525Q2109 518 2119 528Q2122 526 2124 524Q2127 522 2128 517Q2135 515 2137 517Q2140 519 2145 519Q2150 514 2152 514Q2154 514 2161 514Q2170 509 2172 509Q2175 504 2179 503Q2184 502 2185 497Q2202 495 2211 487Q2221 479 2227 464Q2229 459 2239 459Q2238 443 2244 437Q2251 432 2264 426Q2263 418 2262 410Q2262 403 2262 395Q2264 379 2258 372Q2252 366 2254 354Q2251 353 2244 353Q2244 346 2247 342Q2231 336 2222 322Q2213 308 2200 300L2200 290Q2198 288 2195 288Q2192 289 2190 289Q2190 283 2187 278Q2184 273 2184 268Q2177 264 2170 263Q2171 257 2174 250Q2178 244 2185 242Q2187 240 2188 237Q2189 234 2191 232Q2193 230 2195 229Q2198 229 2200 227Q2205 223 2207 218Q2210 213 2215 210Q2224 203 2234 198Q2244 194 2252 183Q2256 171 2262 164Q2268 158 2275 150Q2282 143 2289 136Q2296 130 2299 128Q2299 122 2298 120Q2298 119 2304 115Q2305 109 2304 99Q2304 90 2303 80Q2303 70 2304 62Q2305 54 2309 51ZM2154 418Q2149 418 2143 419Q2138 421 2132 420Q2132 421 2128 424Q2124 427 2119 430Q2114 434 2109 437Q2105 440 2104 440Q2100 441 2096 440Q2092 440 2088 440Q2079 440 2073 445Q2067 450 2059 452Q2057 453 2054 452Q2051 452 2049 452Q2045 452 2042 454Q2039 457 2035 457Q2031 457 2028 456Q2025 455 2021 455Q2016 455 2010 458Q2005 461 1999 458Q1991 466 1979 465Q1968 465 1957 467Q1952 468 1946 470Q1940 472 1935 472Q1931 472 1928 469Q1925 467 1922 467Q1919 467 1916 468Q1913 470 1910 470Q1896 470 1884 464Q1873 459 1857 465Q1845 454 1828 444Q1829 417 1828 390Q1827 386 1826 382Q1825 378 1825 374Q1825 371 1828 368Q1831 366 1833 364Q1828 359 1827 354Q1827 349 1828 343Q1829 338 1831 333Q1833 328 1833 323Q1830 320 1829 311Q1829 302 1831 291Q1833 281 1836 271Q1840 262 1845 258Q1856 265 1866 263Q1877 261 1888 266Q1892 268 1895 269Q1899 271 1903 271Q1909 271 1914 269Q1920 268 1926 268Q1934 268 1942 268Q1950 269 1958 269Q1969 277 1981 277Q1994 277 2007 279Q2019 281 2029 285Q2039 290 2053 288Q2062 298 2065 303Q2068 308 2073 311Q2079 309 2082 310Q2085 311 2087 312Q2090 314 2094 315Q2098 316 2105 315Q2108 325 2117 327Q2126 330 2130 340Q2135 341 2138 341Q2141 341 2143 345Q2148 360 2153 365Q2159 370 2162 374Q2165 379 2164 387Q2163 395 2154 418ZM3002 71Q3001 66 2993 63Q2985 61 2980 56Q2980 50 2977 47Q2974 45 2975 37Q2970 35 2965 28Q2960 21 2955 21Q2948 21 2943 24Q2939 28 2930 26Q2922 41 2908 47Q2901 60 2894 72Q2887 84 2881 97Q2866 110 2857 114Q2848 119 2840 117Q2833 116 2824 110Q2816 104 2801 95Q2791 95 2773 95Q2756 95 2748 99Q2745 100 2742 101Q2740 103 2737 103Q2733 103 2729 101Q2726 100 2722 100Q2718 100 2715 101Q2712 102 2708 103Q2704 103 2701 102Q2699 102 2696 103Q2690 100 2687 97Q2685 95 2681 95Q2667 100 2651 102Q2636 104 2622 112Q2614 114 2613 109Q2612 105 2607 105Q2596 106 2587 104Q2578 103 2567 103Q2562 103 2556 104Q2551 105 2546 105Q2540 105 2535 102Q2530 100 2525 100Q2521 100 2518 101Q2515 103 2510 103Q2505 103 2501 100Q2498 98 2494 98Q2489 98 2485 98Q2481 99 2477 99Q2468 99 2464 95Q2460 92 2458 86Q2457 81 2456 75Q2455 70 2450 66Q2452 51 2449 42Q2446 33 2437 21Q2424 20 2412 17Q2400 15 2387 15Q2379 15 2376 20Q2373 25 2368 30Q2361 36 2357 42Q2354 48 2349 56Q2350 60 2353 62Q2357 65 2360 67Q2358 73 2359 77Q2361 81 2364 85Q2367 89 2369 93Q2372 98 2372 103Q2372 109 2372 111Q2373 113 2374 114Q2375 115 2376 116Q2377 117 2379 121Q2381 125 2380 128Q2379 132 2381 136Q2385 145 2390 152Q2396 160 2401 168Q2403 173 2404 177Q2406 181 2408 185Q2411 193 2419 200L2419 213Q2422 217 2424 220Q2426 223 2431 225Q2430 237 2437 245Q2444 254 2446 265Q2460 273 2469 287Q2479 302 2476 319Q2484 322 2488 330Q2492 338 2500 341Q2500 349 2502 355Q2505 361 2505 369Q2514 374 2517 382Q2521 391 2525 399Q2526 401 2529 406Q2532 412 2535 418Q2538 424 2540 428Q2543 433 2543 435Q2561 465 2564 491Q2570 497 2572 499Q2575 502 2576 504Q2577 507 2577 510Q2577 514 2579 521Q2582 520 2584 523Q2587 527 2590 532Q2594 537 2599 541Q2605 546 2614 546Q2624 546 2633 544Q2642 542 2652 541Q2657 535 2662 530Q2668 525 2673 518L2673 506Q2681 496 2688 485Q2696 475 2708 470Q2707 459 2712 457Q2718 456 2725 451Q2724 442 2726 437Q2729 433 2732 427Q2736 422 2739 417Q2742 413 2743 411Q2748 402 2755 402Q2754 397 2758 395Q2762 394 2760 387Q2769 378 2782 373Q2782 366 2787 360Q2792 355 2797 352Q2798 347 2801 345Q2804 343 2807 341Q2812 338 2814 333Q2817 328 2822 326Q2823 317 2832 305Q2841 294 2851 282Q2861 271 2869 261Q2877 252 2876 247Q2884 242 2891 236Q2899 231 2909 227Q2909 219 2908 215Q2908 212 2909 209Q2910 207 2913 205Q2916 203 2923 198Q2922 193 2927 186Q2929 182 2930 177Q2931 173 2934 168Q2939 160 2947 155Q2956 151 2963 145Q2968 134 2971 123Q2974 112 2978 101Q2985 94 2993 91Q2994 86 2995 80Q2997 74 3002 71ZM2770 259Q2764 260 2761 263Q2758 267 2753 268Q2754 281 2748 282Q2742 283 2735 290Q2735 295 2731 296Q2727 298 2725 302Q2721 313 2720 314Q2719 316 2714 319Q2710 321 2710 324Q2710 327 2702 331Q2698 333 2694 334Q2690 335 2688 339Q2682 350 2673 362Q2665 375 2663 389Q2653 395 2648 403Q2644 411 2630 413Q2622 403 2619 391Q2616 380 2606 372L2606 359Q2601 353 2595 346Q2590 339 2591 331Q2583 329 2583 323Q2583 317 2579 312Q2577 309 2574 308Q2572 307 2572 302Q2567 292 2565 286Q2563 280 2560 275Q2549 270 2551 266Q2553 262 2550 255Q2546 248 2540 245Q2535 243 2537 232Q2526 222 2518 209Q2511 197 2513 182Q2523 183 2533 182Q2543 181 2553 181Q2564 181 2573 185Q2583 189 2594 189Q2607 189 2620 182Q2633 176 2645 182Q2650 180 2653 178Q2656 176 2661 174Q2694 168 2728 179Q2738 175 2743 174Q2746 176 2754 177Q2762 178 2770 179Q2779 180 2785 182Q2792 184 2791 187Q2798 191 2802 191Q2807 191 2807 202Q2807 208 2802 215Q2797 222 2790 229Q2783 237 2777 244Q2771 252 2770 259ZM3758 28Q3757 25 3754 23Q3751 21 3749 19Q3747 17 3746 14Q3745 11 3748 7Q3746 2 3735 1Q3724 1 3718 -6Q3714 -8 3710 -7Q3707 -5 3703 -8Q3694 -3 3687 4Q3681 12 3670 15Q3669 22 3664 26Q3659 30 3659 36Q3660 49 3657 50Q3654 52 3652 57Q3650 60 3650 63Q3650 67 3646 68Q3648 73 3650 78Q3653 83 3655 88Q3650 99 3642 109Q3634 119 3634 132Q3634 137 3634 141Q3635 145 3635 150Q3635 154 3633 157Q3632 160 3635 164Q3633 170 3630 175Q3628 181 3626 187Q3629 188 3630 194Q3631 201 3630 208Q3629 216 3628 223Q3627 231 3627 234Q3627 238 3628 242Q3629 246 3629 250Q3633 267 3629 279Q3625 291 3625 300Q3625 314 3626 327Q3627 340 3618 354Q3603 347 3600 333L3589 333Q3586 330 3586 328Q3586 327 3587 323Q3583 322 3582 319Q3581 316 3580 313Q3579 310 3575 304Q3571 299 3566 293Q3562 287 3557 281Q3553 275 3551 272Q3550 266 3548 260Q3547 255 3548 249L3536 249Q3533 238 3533 228Q3522 206 3517 193Q3512 180 3501 168Q3503 162 3501 160Q3499 158 3499 153Q3491 145 3486 139Q3481 133 3479 122Q3474 120 3472 116Q3471 113 3469 109Q3468 106 3465 103Q3463 100 3457 99Q3462 92 3461 86Q3461 81 3464 75Q3464 71 3460 70Q3456 70 3454 64Q3452 59 3452 54Q3453 49 3452 44Q3450 39 3449 38Q3449 38 3448 37Q3447 36 3447 33Q3447 31 3447 23Q3439 21 3442 13Q3437 15 3436 11Q3435 8 3436 4Q3431 5 3426 4Q3421 4 3418 -1Q3414 2 3409 0Q3405 -1 3400 -1Q3394 5 3388 4Q3382 3 3374 3Q3369 14 3362 21Q3355 28 3353 42Q3348 47 3345 53Q3343 59 3338 64Q3338 75 3334 85Q3330 96 3320 102Q3319 111 3315 118Q3311 126 3306 133Q3306 140 3303 145Q3301 151 3298 155Q3295 160 3292 165Q3289 170 3288 176Q3284 178 3281 181Q3279 185 3274 187Q3273 192 3271 195Q3270 199 3268 203Q3257 213 3251 226Q3245 239 3234 248Q3235 251 3233 253Q3232 255 3231 258Q3215 271 3206 289Q3198 308 3185 317Q3175 329 3170 336Q3166 343 3158 348Q3150 349 3150 345Q3150 341 3152 336Q3152 333 3151 330Q3150 327 3150 324Q3150 321 3151 318Q3152 316 3152 313Q3152 296 3149 279Q3147 263 3147 246Q3147 244 3148 241Q3149 238 3149 235Q3149 231 3147 228Q3146 225 3146 220Q3146 211 3147 201Q3149 192 3150 183Q3154 181 3155 178Q3157 175 3159 172Q3158 165 3158 158Q3159 151 3162 145Q3160 141 3158 138Q3156 135 3160 131Q3160 126 3163 124Q3166 122 3169 120Q3172 119 3174 117Q3177 115 3177 110Q3177 104 3172 100Q3168 97 3164 93Q3171 77 3172 61Q3169 59 3166 57Q3163 56 3161 52Q3151 41 3153 39Q3156 38 3155 35Q3144 30 3136 21Q3128 13 3116 11Q3109 17 3103 20Q3098 23 3088 21Q3084 24 3083 27Q3082 31 3076 31Q3076 39 3072 42Q3069 45 3066 51Q3068 61 3065 70Q3063 80 3063 90Q3063 100 3064 109Q3066 119 3066 129Q3066 134 3064 138Q3063 142 3063 147Q3063 150 3064 153Q3066 156 3066 159Q3066 162 3064 164Q3062 167 3061 170Q3059 176 3058 182Q3058 188 3058 194Q3058 199 3060 203Q3063 207 3063 212Q3063 221 3061 230Q3060 240 3060 250Q3060 257 3063 261Q3066 266 3066 271Q3066 279 3064 287Q3063 295 3061 303Q3063 319 3063 323Q3063 328 3064 330Q3066 333 3067 335Q3069 337 3069 342Q3069 347 3067 352Q3066 358 3066 363Q3066 375 3068 386Q3071 398 3071 410Q3071 415 3069 418Q3067 421 3066 425Q3069 427 3068 431Q3067 436 3067 439Q3069 452 3066 452Q3063 453 3061 455Q3063 465 3067 470Q3071 476 3072 490Q3072 497 3071 504Q3071 512 3075 519Q3084 521 3087 528Q3090 536 3092 544Q3099 543 3104 550Q3108 549 3113 550Q3119 552 3126 553Q3133 554 3142 552Q3151 551 3162 545L3162 533Q3171 526 3173 513Q3176 501 3180 491Q3182 486 3186 477Q3191 468 3196 459Q3202 450 3208 442Q3214 435 3219 433Q3219 428 3221 423Q3224 419 3224 414Q3227 410 3229 405Q3231 401 3236 398Q3236 388 3241 383Q3247 378 3249 369Q3252 367 3255 366Q3259 366 3262 364Q3266 354 3274 348Q3282 342 3289 334Q3296 325 3302 315Q3308 306 3318 300Q3318 292 3320 285Q3323 279 3331 277Q3329 270 3334 267Q3340 265 3343 260Q3341 253 3344 254Q3347 255 3347 250Q3355 242 3355 238Q3356 235 3358 233Q3362 228 3365 223Q3368 219 3371 214Q3375 210 3378 205Q3381 201 3382 201Q3380 189 3385 181Q3390 173 3397 171Q3404 170 3410 177Q3417 185 3419 205Q3430 210 3431 220Q3432 230 3434 240Q3439 244 3441 249Q3444 254 3449 257Q3451 262 3450 263Q3449 264 3447 268Q3451 269 3451 272Q3452 276 3452 279Q3458 280 3457 284Q3457 288 3465 289Q3463 297 3465 299Q3467 302 3467 309Q3471 311 3470 312Q3470 314 3477 312Q3476 315 3476 320Q3477 325 3474 327Q3476 329 3480 328Q3484 328 3486 328Q3487 339 3493 345Q3500 352 3501 363Q3517 371 3522 380Q3527 390 3536 396Q3535 402 3536 405Q3538 409 3540 411Q3542 414 3544 417Q3546 420 3546 425Q3554 427 3556 434Q3558 442 3566 446Q3564 452 3568 464Q3572 477 3580 477Q3581 491 3587 499Q3593 507 3595 519Q3601 519 3607 522Q3609 530 3615 533Q3621 537 3624 544Q3641 546 3648 552Q3655 559 3665 554Q3669 549 3670 547Q3671 545 3669 539L3682 539Q3684 534 3684 531Q3685 529 3684 524Q3686 520 3689 518Q3693 516 3694 514Q3692 503 3695 491Q3698 479 3693 468Q3700 466 3698 458Q3697 450 3703 446Q3701 443 3700 440Q3699 438 3698 435Q3703 434 3703 432Q3703 431 3702 428Q3702 426 3702 422Q3703 418 3709 411Q3709 409 3706 408Q3704 407 3704 402Q3706 400 3707 397Q3709 394 3711 392Q3706 381 3710 375Q3714 369 3714 362Q3711 348 3713 344Q3716 340 3708 337Q3711 327 3713 316Q3716 306 3716 295Q3716 290 3715 284Q3714 279 3714 274Q3714 269 3716 266Q3719 263 3719 261Q3719 258 3717 257Q3715 256 3717 251Q3717 240 3713 231Q3710 223 3718 214Q3715 207 3717 200Q3719 193 3719 185Q3722 183 3723 180Q3725 178 3727 176Q3723 170 3726 165Q3729 160 3729 154Q3726 152 3726 146Q3727 141 3729 135Q3732 129 3735 123Q3738 117 3739 114Q3738 100 3744 97Q3745 93 3745 89Q3745 85 3750 83Q3748 76 3751 72Q3754 68 3758 63Q3759 46 3756 40Q3753 35 3758 28ZM4457 71Q4456 66 4448 63Q4440 61 4435 56Q4435 50 4432 47Q4429 45 4430 37Q4425 35 4420 28Q4415 21 4410 21Q4403 21 4398 24Q4394 28 4385 26Q4377 41 4363 47Q4356 60 4349 72Q4342 84 4336 97Q4321 110 4312 114Q4303 119 4295 117Q4288 116 4279 110Q4271 104 4256 95Q4246 95 4228 95Q4211 95 4203 99Q4200 100 4197 101Q4195 103 4192 103Q4188 103 4184 101Q4181 100 4177 100Q4173 100 4170 101Q4167 102 4163 103Q4159 103 4156 102Q4154 102 4151 103Q4145 100 4142 97Q4140 95 4136 95Q4122 100 4106 102Q4091 104 4077 112Q4069 114 4068 109Q4067 105 4062 105Q4051 106 4042 104Q4033 103 4022 103Q4017 103 4011 104Q4006 105 4001 105Q3995 105 3990 102Q3985 100 3980 100Q3976 100 3973 101Q3970 103 3965 103Q3960 103 3956 100Q3953 98 3949 98Q3944 98 3940 98Q3936 99 3932 99Q3923 99 3919 95Q3915 92 3913 86Q3912 81 3911 75Q3910 70 3905 66Q3907 51 3904 42Q3901 33 3892 21Q3879 20 3867 17Q3855 15 3842 15Q3834 15 3831 20Q3828 25 3823 30Q3816 36 3812 42Q3809 48 3804 56Q3805 60 3808 62Q3812 65 3815 67Q3813 73 3814 77Q3816 81 3819 85Q3822 89 3824 93Q3827 98 3827 103Q3827 109 3827 111Q3828 113 3829 114Q3830 115 3831 116Q3832 117 3834 121Q3836 125 3835 128Q3834 132 3836 136Q3840 145 3845 152Q3851 160 3856 168Q3858 173 3859 177Q3861 181 3863 185Q3866 193 3874 200L3874 213Q3877 217 3879 220Q3881 223 3886 225Q3885 237 3892 245Q3899 254 3901 265Q3915 273 3924 287Q3934 302 3931 319Q3939 322 3943 330Q3947 338 3955 341Q3955 349 3957 355Q3960 361 3960 369Q3969 374 3972 382Q3976 391 3980 399Q3981 401 3984 406Q3987 412 3990 418Q3993 424 3995 428Q3998 433 3998 435Q4016 465 4019 491Q4025 497 4027 499Q4030 502 4031 504Q4032 507 4032 510Q4032 514 4034 521Q4037 520 4039 523Q4042 527 4045 532Q4049 537 4054 541Q4060 546 4069 546Q4079 546 4088 544Q4097 542 4107 541Q4112 535 4117 530Q4123 525 4128 518L4128 506Q4136 496 4143 485Q4151 475 4163 470Q4162 459 4167 457Q4173 456 4180 451Q4179 442 4181 437Q4184 433 4187 427Q4191 422 4194 417Q4197 413 4198 411Q4203 402 4210 402Q4209 397 4213 395Q4217 394 4215 387Q4224 378 4237 373Q4237 366 4242 360Q4247 355 4252 352Q4253 347 4256 345Q4259 343 4262 341Q4267 338 4269 333Q4272 328 4277 326Q4278 317 4287 305Q4296 294 4306 282Q4316 271 4324 261Q4332 252 4331 247Q4339 242 4346 236Q4354 231 4364 227Q4364 219 4363 215Q4363 212 4364 209Q4365 207 4368 205Q4371 203 4378 198Q4377 193 4382 186Q4384 182 4385 177Q4386 173 4389 168Q4394 160 4402 155Q4411 151 4418 145Q4423 134 4426 123Q4429 112 4433 101Q4440 94 4448 91Q4449 86 4450 80Q4452 74 4457 71ZM4225 259Q4219 260 4216 263Q4213 267 4208 268Q4209 281 4203 282Q4197 283 4190 290Q4190 295 4186 296Q4182 298 4180 302Q4176 313 4175 314Q4174 316 4169 319Q4165 321 4165 324Q4165 327 4157 331Q4153 333 4149 334Q4145 335 4143 339Q4137 350 4128 362Q4120 375 4118 389Q4108 395 4103 403Q4099 411 4085 413Q4077 403 4074 391Q4071 380 4061 372L4061 359Q4056 353 4050 346Q4045 339 4046 331Q4038 329 4038 323Q4038 317 4034 312Q4032 309 4029 308Q4027 307 4027 302Q4022 292 4020 286Q4018 280 4015 275Q4004 270 4006 266Q4008 262 4005 255Q4001 248 3995 245Q3990 243 3992 232Q3981 222 3973 209Q3966 197 3968 182Q3978 183 3988 182Q3998 181 4008 181Q4019 181 4028 185Q4038 189 4049 189Q4062 189 4075 182Q4088 176 4100 182Q4105 180 4108 178Q4111 176 4116 174Q4149 168 4183 179Q4193 175 4198 174Q4201 176 4209 177Q4217 178 4225 179Q4234 180 4240 182Q4247 184 4246 187Q4253 191 4257 191Q4262 191 4262 202Q4262 208 4257 215Q4252 222 4245 229Q4238 237 4232 244Q4226 252 4225 259ZM4999 463L5005 463Q4997 461 4996 454Q4996 448 4996 440Q4996 433 4997 426Q4998 420 5000 418Q4992 412 4994 407Q4997 403 4999 396Q4993 386 4995 371Q4997 357 4997 346Q4997 342 4995 338Q4994 335 4994 331Q4994 325 4996 319Q4999 313 4999 306Q4999 296 4996 288Q4994 280 4997 269Q4989 260 4990 248Q4992 237 4992 226Q4992 221 4990 216Q4988 212 4987 207Q4985 199 4987 192Q4989 185 4984 177Q4989 169 4989 160Q4989 151 4989 143Q4989 135 4992 125Q4996 116 4994 109Q5000 106 5000 98Q5000 88 4997 88Q4994 89 4989 83Q4992 78 4993 74Q4995 70 4997 65Q4997 59 4992 51Q4988 44 4993 39Q4983 32 4980 20Q4976 18 4971 14Q4967 10 4963 10Q4959 10 4955 11Q4952 13 4948 13Q4938 13 4929 9Q4921 5 4910 6Q4894 8 4889 12Q4884 16 4879 21Q4874 26 4869 31Q4864 36 4858 38Q4857 41 4851 47Q4846 54 4839 60Q4833 66 4826 71Q4819 76 4816 77Q4808 85 4807 89Q4806 93 4799 93Q4800 100 4797 104Q4795 109 4792 113Q4789 118 4785 122Q4782 126 4781 132Q4771 134 4768 142Q4765 150 4754 150Q4752 157 4747 159Q4742 162 4737 164Q4736 169 4734 169Q4732 170 4734 176Q4723 184 4713 193Q4703 203 4691 211Q4689 219 4684 225Q4680 232 4672 236Q4672 240 4668 247Q4664 255 4659 263Q4654 271 4649 278Q4644 285 4641 288Q4636 293 4636 295Q4637 298 4630 303Q4625 306 4626 308Q4627 311 4624 315Q4622 320 4617 323Q4613 327 4609 331Q4604 332 4602 330Q4600 329 4599 327Q4598 325 4597 323Q4596 321 4592 321Q4593 316 4594 312Q4596 308 4596 303Q4596 298 4593 292Q4590 286 4596 284Q4592 276 4591 266Q4591 257 4596 249Q4590 248 4589 244Q4588 240 4589 234Q4591 229 4593 223Q4595 218 4595 215Q4595 210 4593 205Q4592 201 4592 196Q4592 186 4597 176Q4602 166 4608 158Q4613 152 4614 145Q4616 138 4619 132Q4615 124 4618 116Q4621 108 4622 99Q4624 96 4626 93Q4629 91 4631 87Q4626 85 4626 80Q4627 75 4625 71Q4625 64 4627 59Q4629 54 4629 49Q4630 45 4627 41Q4625 37 4617 32Q4618 20 4615 16Q4612 12 4606 3Q4598 2 4592 1Q4587 1 4581 6Q4573 6 4573 -2Q4564 3 4554 7Q4544 12 4536 17Q4536 27 4535 36Q4535 45 4535 55L4535 73Q4535 78 4533 80Q4531 83 4528 86Q4530 95 4530 108Q4531 122 4523 129Q4522 144 4521 159Q4521 174 4518 189Q4527 200 4522 214Q4518 229 4518 242Q4518 245 4519 248Q4521 251 4521 254Q4521 270 4518 285Q4516 300 4516 316Q4516 323 4518 330Q4521 337 4521 345Q4521 354 4520 363Q4519 373 4517 382Q4516 385 4514 390Q4513 396 4513 398Q4513 403 4514 406Q4516 410 4518 415Q4511 441 4509 468Q4508 495 4508 521Q4512 525 4517 529Q4522 534 4527 538Q4533 543 4537 547Q4542 551 4543 551Q4546 552 4551 551Q4557 551 4562 549Q4568 548 4573 546Q4578 545 4579 543Q4581 540 4582 537Q4584 534 4586 532Q4589 529 4593 528Q4598 528 4603 520Q4606 515 4606 513Q4606 512 4607 511Q4608 510 4610 509Q4612 508 4618 505Q4626 494 4631 479Q4637 465 4643 450Q4649 436 4656 422Q4664 409 4677 399Q4677 385 4691 376Q4691 365 4695 363Q4699 361 4704 354Q4707 341 4715 332Q4724 324 4732 314Q4734 311 4735 308Q4736 305 4741 304Q4740 298 4743 296Q4747 295 4746 290Q4758 281 4758 275Q4759 269 4769 269Q4767 265 4770 262Q4773 259 4777 256Q4782 253 4787 249Q4792 245 4794 239L4806 239Q4808 228 4817 223Q4826 218 4829 207Q4834 205 4838 201Q4843 197 4848 195Q4849 187 4853 182Q4858 177 4865 173Q4864 165 4870 157Q4876 150 4882 147Q4887 148 4886 143Q4886 139 4894 137Q4910 153 4901 176Q4906 181 4905 191Q4905 201 4905 207Q4905 216 4907 225Q4909 235 4909 244Q4909 251 4906 259Q4907 261 4909 268Q4911 275 4912 283Q4914 291 4915 298Q4916 305 4916 307Q4916 312 4913 314Q4911 316 4910 320Q4913 323 4915 326Q4918 329 4920 332Q4921 341 4917 342Q4913 343 4913 347Q4913 355 4915 363Q4918 371 4918 379Q4918 383 4916 386Q4915 390 4915 394Q4915 401 4917 407Q4920 413 4920 419Q4920 424 4917 433Q4915 443 4910 445Q4912 460 4913 475Q4914 490 4903 503Q4902 514 4901 524Q4901 535 4909 544Q4916 546 4922 548Q4929 551 4932 559Q4943 559 4953 559Q4964 560 4975 557Q4982 545 4988 534Q4994 523 4989 509Q4991 504 4994 498Q4997 492 4997 486Q4997 482 4995 479Q4994 476 4994 473Q4994 468 4995 467Q4997 466 4999 463ZM5237 49Q5235 46 5233 43Q5231 41 5230 38Q5224 36 5220 33Q5216 31 5209 31Q5196 18 5182 11Q5176 16 5168 17Q5161 19 5153 18Q5153 19 5150 22Q5147 26 5143 29Q5140 33 5137 36Q5134 40 5133 40Q5133 52 5130 64Q5128 76 5128 87Q5128 95 5131 103Q5134 111 5134 119Q5134 128 5133 137Q5133 146 5133 155Q5133 159 5134 162Q5135 165 5135 169Q5135 174 5132 178Q5130 183 5130 188Q5130 193 5131 197Q5133 201 5133 206Q5133 213 5128 218Q5129 223 5131 226Q5133 229 5135 234Q5128 254 5133 270Q5138 286 5138 306Q5138 310 5136 312Q5134 315 5133 319Q5138 326 5135 330Q5132 335 5130 340Q5133 343 5133 351Q5133 359 5133 363Q5134 368 5132 370Q5131 372 5130 377Q5135 383 5131 395Q5128 407 5128 415Q5128 419 5128 426Q5129 434 5129 442Q5129 450 5129 457Q5129 464 5128 468Q5126 471 5124 474Q5122 477 5122 481Q5122 486 5124 492Q5126 498 5125 503Q5130 506 5132 507Q5134 508 5140 506Q5142 513 5147 520Q5152 527 5160 527Q5164 527 5167 524Q5170 521 5173 519Q5176 517 5179 516Q5182 516 5185 521Q5191 519 5194 514Q5197 510 5205 509Q5207 502 5211 495Q5215 489 5215 482Q5215 477 5213 472Q5212 468 5212 463Q5212 460 5213 457Q5215 454 5215 450Q5215 444 5213 438Q5212 432 5212 425Q5212 419 5215 415Q5218 412 5218 407Q5218 399 5217 397Q5217 395 5222 388Q5223 383 5221 380Q5220 377 5220 374Q5220 369 5222 366Q5225 363 5225 360Q5225 357 5223 354Q5222 351 5222 348Q5222 323 5225 301Q5226 295 5228 289Q5230 284 5230 279Q5230 273 5228 267Q5227 262 5227 256Q5227 244 5228 232Q5230 221 5228 209Q5230 204 5230 199Q5230 195 5235 193Q5233 188 5230 186Q5228 184 5230 177Q5228 169 5232 165Q5236 161 5236 157Q5236 156 5233 154Q5230 153 5230 148Q5230 144 5232 141Q5235 139 5235 135Q5235 130 5234 125Q5233 120 5233 115Q5233 104 5236 92Q5239 80 5229 70Q5234 65 5233 59Q5232 53 5237 49Z" fill="#603f83" style=""></path></g></g><g transform="matrix(1,0,0,1,627.9375,1056.7)"><g transform="matrix(1,0,0,-1,0,0)"><path d="M381 644Q375 643 372 646Q369 649 365 649Q355 646 349 650Q346 652 343 651Q340 650 337 650Q332 650 329 653Q326 656 322 657Q317 656 312 656Q307 656 302 656Q293 656 287 653Q281 651 278 651Q267 653 266 652Q265 651 263 650Q257 646 247 647Q237 648 230 646Q229 646 223 643Q218 640 212 636Q206 632 200 628Q194 625 193 624Q191 617 188 611Q186 606 184 599Q167 586 160 579Q154 573 152 558Q144 545 142 538Q140 531 140 523Q140 517 143 512Q146 508 146 502Q153 495 151 493Q149 492 158 488Q164 486 164 478Q175 471 177 466Q180 462 188 460Q190 456 191 453Q193 450 195 447Q202 445 207 442Q212 439 217 437Q222 435 227 434Q233 434 241 437Q246 429 254 426Q263 426 277 426Q292 426 307 427Q323 428 336 430Q350 432 356 437Q362 435 366 431Q371 428 376 424Q383 426 389 423Q396 421 402 418Q408 415 414 413Q421 412 430 415Q433 411 436 407Q439 403 443 400Q454 398 465 395Q476 392 484 382L500 382Q502 374 508 373Q515 372 520 367Q524 367 525 365Q526 363 527 361Q528 360 529 359Q531 358 536 359Q540 347 552 343Q559 327 567 323Q565 315 571 307Q578 299 578 288Q582 283 584 277Q586 271 591 266Q588 255 589 245Q591 236 594 227Q597 218 600 209Q604 200 604 191Q604 187 603 184Q602 181 601 178Q601 176 603 173Q606 170 606 167Q606 160 603 157Q600 155 602 147Q595 142 592 137Q590 132 591 124Q586 123 585 120Q585 118 580 117Q581 107 576 100Q571 94 571 85Q571 80 567 79Q563 79 560 77Q559 72 555 62Q549 62 548 60Q548 59 546 57Q528 46 519 36Q511 27 492 22Q487 21 485 17Q483 14 479 12L467 12Q462 7 458 4Q455 1 453 -5Q434 -13 419 -25Q409 -24 398 -28Q388 -31 380 -27Q375 -29 359 -34Q343 -38 338 -38Q332 -38 331 -35Q331 -31 323 -31Q317 -31 311 -34Q306 -36 300 -36Q289 -36 279 -32Q269 -27 258 -34Q250 -31 243 -28Q237 -25 229 -23Q226 -22 222 -22Q219 -22 216 -21Q205 -18 200 -15Q196 -12 184 -12Q167 -12 153 -5Q139 3 123 5Q117 16 105 21Q104 26 101 28Q98 30 95 32Q90 36 86 41Q83 46 80 51Q74 53 69 57Q64 62 59 67Q60 76 58 79Q57 83 51 91L51 108Q46 115 41 122Q36 129 36 138Q36 150 43 161Q50 172 55 183Q63 184 67 184Q72 185 76 184Q81 183 85 183Q89 183 91 189Q97 182 102 175Q108 168 116 164Q116 152 121 146Q126 140 129 129Q131 122 137 120Q143 118 142 107Q145 105 149 103Q153 101 157 99Q157 94 158 91Q159 89 161 84Q168 77 177 74Q187 71 194 64Q200 64 204 62Q209 61 214 64Q222 61 227 59Q233 58 241 58Q246 58 248 54Q250 51 252 51Q260 51 262 56Q272 54 279 50Q287 47 298 47Q306 47 315 48Q324 49 332 49Q339 49 345 48Q352 47 358 47Q362 47 375 51Q389 55 394 57Q404 60 406 66L417 66Q426 77 439 81Q452 86 463 94Q465 94 469 94Q473 94 475 96Q481 98 483 104Q486 111 488 116Q493 114 494 117Q495 121 501 120Q503 125 501 130Q511 133 513 141Q516 149 521 157Q519 162 520 166Q521 171 521 176Q519 184 520 186Q521 189 521 191Q521 197 519 207Q517 217 513 228Q510 239 505 248Q501 258 497 263Q498 274 493 277Q489 281 487 290Q485 291 480 293Q476 296 470 299Q465 302 461 305Q457 308 456 309Q445 316 435 315Q425 314 417 324Q415 324 410 321Q406 319 401 319Q400 323 398 325Q397 327 395 330Q381 332 367 339Q354 346 340 346Q335 346 330 343Q325 341 320 341Q316 341 313 342Q310 343 307 343Q302 343 298 342Q294 341 290 341Q283 341 277 343Q271 345 264 345Q261 345 258 344Q255 343 252 343Q243 343 236 346Q230 350 217 349Q212 349 209 352Q206 356 197 356Q192 356 186 357Q181 358 177 362Q165 360 160 363Q156 366 151 370Q146 375 141 379Q137 384 136 386Q132 385 131 387Q130 389 125 388Q119 398 110 406Q101 415 96 426Q93 430 83 434Q83 438 81 441Q80 444 81 448Q64 462 64 480Q61 485 59 488Q58 492 53 495Q55 503 57 513Q60 524 52 530Q61 541 61 553Q62 566 70 577Q71 582 72 587Q73 592 72 597Q77 598 83 607Q89 616 90 621Q100 623 104 631Q108 639 116 644Q118 654 124 661Q130 668 135 676Q140 687 145 695Q151 704 162 710Q170 709 179 712Q188 716 193 714Q196 716 198 719Q201 722 205 723Q216 730 219 729Q222 729 228 729Q245 729 251 733Q258 738 266 738Q270 738 274 736Q278 735 282 735Q290 735 302 736Q314 738 326 738Q339 739 350 738Q361 738 368 734Q373 731 378 732Q384 733 389 731Q394 729 396 725Q398 721 402 718Q407 718 417 716Q427 714 437 711Q448 708 457 705Q467 702 471 699Q476 700 481 698Q486 696 491 697Q493 690 499 689Q505 689 507 681Q509 680 513 678Q517 676 521 673Q526 671 530 669Q534 668 535 668Q538 668 541 669Q544 671 547 671Q550 660 555 650Q560 641 565 632Q563 624 562 617Q561 610 560 602Q553 599 546 595Q540 592 532 592Q526 592 521 594Q516 597 510 597Q505 597 501 595Q498 594 493 595Q476 604 469 616Q462 615 459 617Q457 620 453 625Q449 623 448 622Q447 621 442 623Q440 628 433 631Q426 634 421 634Q418 634 415 632Q413 631 410 631Q405 631 400 634Q395 637 392 637Q382 635 382 638Q382 641 381 644ZM1191 92Q1183 78 1183 62Q1184 46 1179 32Q1165 34 1163 29Q1162 25 1152 25Q1132 25 1116 36Q1111 37 1107 36Q1103 35 1098 33Q1096 35 1095 38Q1095 41 1094 44Q1092 51 1088 54Q1084 58 1082 63Q1080 71 1080 75Q1080 79 1075 85Q1084 105 1089 120Q1095 136 1090 158Q1087 162 1081 164Q1076 166 1070 166Q1064 167 1058 167Q1052 168 1048 170Q1043 167 1037 165Q1032 163 1027 160Q1023 160 1021 162Q1019 165 1013 165Q1008 165 1004 163Q1000 162 995 162Q983 162 971 164Q960 167 948 167Q943 167 939 166Q935 165 930 165Q919 165 908 170Q898 175 891 175Q886 175 882 172Q879 169 874 169Q870 169 866 170Q863 172 859 172Q856 174 850 174Q844 174 838 171Q832 169 826 165Q820 161 817 158Q817 150 817 145Q817 141 817 137Q818 133 820 129Q823 126 827 119Q831 112 834 105Q837 99 840 92Q830 81 840 82Q836 64 832 61Q829 59 827 50Q828 47 826 42Q825 38 829 36Q827 31 820 28Q813 25 817 18Q815 16 811 15Q808 15 805 13L782 6Q777 6 775 7Q774 8 769 11Q764 15 758 14Q753 14 749 17Q743 26 741 31Q740 37 740 42Q735 47 733 55Q731 63 724 67Q727 74 733 76Q732 87 732 97Q733 107 733 118Q733 129 732 142Q731 155 726 164Q724 167 722 169Q721 172 720 175Q719 180 719 185Q720 191 720 196Q720 202 717 206Q715 211 715 216Q715 219 716 222Q717 226 717 229Q718 251 717 265Q716 279 715 293Q717 307 719 309Q721 312 721 320Q721 325 720 329Q720 333 720 338Q720 353 721 369Q722 385 720 400Q719 406 717 410Q716 415 716 422Q716 427 713 432Q710 437 706 440Q707 443 707 446Q707 450 707 453Q717 455 713 465Q714 473 711 474Q708 475 703 480Q707 491 708 502Q710 513 712 524Q726 528 738 534Q750 540 762 546Q770 543 774 540Q778 537 777 527Q784 523 791 522Q789 514 793 509Q797 504 797 497Q797 491 794 485Q791 479 789 474Q792 470 791 465Q791 460 790 455Q790 450 789 446Q789 442 792 440Q791 422 795 411Q799 400 799 392Q799 387 796 383Q794 379 799 374Q800 371 796 369Q792 367 792 362Q792 354 795 346Q798 339 797 331Q796 322 796 319Q797 317 797 315Q797 301 795 289Q794 278 797 265Q805 260 813 257Q821 255 829 251Q840 253 850 256Q861 259 872 259Q879 259 885 256Q891 254 897 254Q904 254 910 256Q916 259 922 259Q927 259 934 254Q941 249 945 246Q953 245 955 248Q957 252 962 254Q965 247 973 244L995 244Q1007 244 1018 249Q1029 254 1041 254Q1044 254 1046 252Q1048 251 1051 251Q1054 251 1056 253Q1059 256 1062 256Q1070 256 1076 255Q1083 255 1090 260Q1090 268 1090 279Q1090 291 1083 297Q1088 317 1084 336Q1080 355 1080 375Q1080 380 1081 385Q1083 390 1083 395Q1083 400 1080 402Q1077 405 1075 410Q1077 421 1075 434Q1073 448 1065 456Q1064 459 1066 461Q1068 464 1068 467Q1068 472 1066 476Q1064 480 1064 485Q1064 499 1068 512Q1073 526 1075 540Q1084 544 1093 547Q1103 550 1111 558Q1117 556 1123 552Q1129 549 1135 547Q1136 543 1136 541Q1137 539 1141 538Q1143 538 1144 532Q1145 527 1150 528Q1151 519 1155 517Q1156 512 1155 507Q1154 503 1159 500Q1158 496 1155 493Q1152 491 1152 487Q1152 479 1154 470Q1156 462 1157 453Q1159 445 1159 436Q1159 428 1154 420Q1157 412 1162 403Q1167 394 1169 385Q1168 381 1165 378Q1162 375 1162 370Q1162 357 1163 344Q1164 331 1167 318Q1165 311 1166 308Q1168 305 1170 302Q1175 291 1175 274Q1176 257 1171 246Q1176 236 1176 220Q1176 215 1174 202Q1172 190 1171 176Q1171 163 1172 152Q1174 142 1181 142Q1179 132 1181 123Q1183 115 1179 105Q1180 100 1183 97Q1186 95 1191 92ZM1910 71Q1909 66 1901 63Q1893 61 1888 56Q1888 50 1885 47Q1882 45 1883 37Q1878 35 1873 28Q1868 21 1863 21Q1856 21 1851 24Q1847 28 1838 26Q1830 41 1816 47Q1809 60 1802 72Q1795 84 1789 97Q1774 110 1765 114Q1756 119 1748 117Q1741 116 1732 110Q1724 104 1709 95Q1699 95 1681 95Q1664 95 1656 99Q1653 100 1650 101Q1648 103 1645 103Q1641 103 1637 101Q1634 100 1630 100Q1626 100 1623 101Q1620 102 1616 103Q1612 103 1609 102Q1607 102 1604 103Q1598 100 1595 97Q1593 95 1589 95Q1575 100 1559 102Q1544 104 1530 112Q1522 114 1521 109Q1520 105 1515 105Q1504 106 1495 104Q1486 103 1475 103Q1470 103 1464 104Q1459 105 1454 105Q1448 105 1443 102Q1438 100 1433 100Q1429 100 1426 101Q1423 103 1418 103Q1413 103 1409 100Q1406 98 1402 98Q1397 98 1393 98Q1389 99 1385 99Q1376 99 1372 95Q1368 92 1366 86Q1365 81 1364 75Q1363 70 1358 66Q1360 51 1357 42Q1354 33 1345 21Q1332 20 1320 17Q1308 15 1295 15Q1287 15 1284 20Q1281 25 1276 30Q1269 36 1265 42Q1262 48 1257 56Q1258 60 1261 62Q1265 65 1268 67Q1266 73 1267 77Q1269 81 1272 85Q1275 89 1277 93Q1280 98 1280 103Q1280 109 1280 111Q1281 113 1282 114Q1283 115 1284 116Q1285 117 1287 121Q1289 125 1288 128Q1287 132 1289 136Q1293 145 1298 152Q1304 160 1309 168Q1311 173 1312 177Q1314 181 1316 185Q1319 193 1327 200L1327 213Q1330 217 1332 220Q1334 223 1339 225Q1338 237 1345 245Q1352 254 1354 265Q1368 273 1377 287Q1387 302 1384 319Q1392 322 1396 330Q1400 338 1408 341Q1408 349 1410 355Q1413 361 1413 369Q1422 374 1425 382Q1429 391 1433 399Q1434 401 1437 406Q1440 412 1443 418Q1446 424 1448 428Q1451 433 1451 435Q1469 465 1472 491Q1478 497 1480 499Q1483 502 1484 504Q1485 507 1485 510Q1485 514 1487 521Q1490 520 1492 523Q1495 527 1498 532Q1502 537 1507 541Q1513 546 1522 546Q1532 546 1541 544Q1550 542 1560 541Q1565 535 1570 530Q1576 525 1581 518L1581 506Q1589 496 1596 485Q1604 475 1616 470Q1615 459 1620 457Q1626 456 1633 451Q1632 442 1634 437Q1637 433 1640 427Q1644 422 1647 417Q1650 413 1651 411Q1656 402 1663 402Q1662 397 1666 395Q1670 394 1668 387Q1677 378 1690 373Q1690 366 1695 360Q1700 355 1705 352Q1706 347 1709 345Q1712 343 1715 341Q1720 338 1722 333Q1725 328 1730 326Q1731 317 1740 305Q1749 294 1759 282Q1769 271 1777 261Q1785 252 1784 247Q1792 242 1799 236Q1807 231 1817 227Q1817 219 1816 215Q1816 212 1817 209Q1818 207 1821 205Q1824 203 1831 198Q1830 193 1835 186Q1837 182 1838 177Q1839 173 1842 168Q1847 160 1855 155Q1864 151 1871 145Q1876 134 1879 123Q1882 112 1886 101Q1893 94 1901 91Q1902 86 1903 80Q1905 74 1910 71ZM1678 259Q1672 260 1669 263Q1666 267 1661 268Q1662 281 1656 282Q1650 283 1643 290Q1643 295 1639 296Q1635 298 1633 302Q1629 313 1628 314Q1627 316 1622 319Q1618 321 1618 324Q1618 327 1610 331Q1606 333 1602 334Q1598 335 1596 339Q1590 350 1581 362Q1573 375 1571 389Q1561 395 1556 403Q1552 411 1538 413Q1530 403 1527 391Q1524 380 1514 372L1514 359Q1509 353 1503 346Q1498 339 1499 331Q1491 329 1491 323Q1491 317 1487 312Q1485 309 1482 308Q1480 307 1480 302Q1475 292 1473 286Q1471 280 1468 275Q1457 270 1459 266Q1461 262 1458 255Q1454 248 1448 245Q1443 243 1445 232Q1434 222 1426 209Q1419 197 1421 182Q1431 183 1441 182Q1451 181 1461 181Q1472 181 1481 185Q1491 189 1502 189Q1515 189 1528 182Q1541 176 1553 182Q1558 180 1561 178Q1564 176 1569 174Q1602 168 1636 179Q1646 175 1651 174Q1654 176 1662 177Q1670 178 1678 179Q1687 180 1693 182Q1700 184 1699 187Q1706 191 1710 191Q1715 191 1715 202Q1715 208 1710 215Q1705 222 1698 229Q1691 237 1685 244Q1679 252 1678 259ZM2523 51Q2519 37 2522 21Q2517 13 2508 7Q2500 1 2492 -4Q2482 -3 2472 0Q2463 4 2453 6Q2450 13 2444 17Q2439 21 2436 27Q2433 32 2432 41Q2432 50 2431 59Q2430 68 2427 75Q2425 82 2419 84Q2420 94 2409 108Q2398 122 2393 132Q2385 137 2379 144Q2373 152 2368 160Q2358 158 2355 163Q2353 168 2346 166Q2346 169 2344 171Q2343 174 2342 176Q2333 184 2323 190Q2314 196 2306 204Q2301 204 2296 202Q2292 201 2289 207Q2284 207 2280 204Q2277 202 2274 202Q2271 202 2268 203Q2266 204 2263 204Q2252 204 2240 203Q2229 203 2218 199Q2216 201 2213 204Q2210 207 2208 207Q2206 207 2195 201Q2185 196 2177 195Q2163 193 2144 192Q2125 191 2115 178Q2110 180 2104 179Q2098 179 2097 172Q2091 173 2088 174Q2086 176 2080 174Q2075 164 2080 156Q2085 148 2087 139Q2088 131 2088 115Q2088 99 2096 94Q2093 87 2092 80Q2091 73 2091 65Q2091 62 2092 59Q2094 57 2094 53Q2094 48 2091 44Q2089 41 2090 36Q2083 34 2082 27Q2081 21 2081 16Q2073 16 2067 13Q2062 11 2056 8Q2051 5 2045 4Q2039 3 2031 6Q2022 19 2007 30Q2008 34 2006 38Q2005 43 2000 43Q2001 54 1998 59Q1995 64 1990 73Q1990 79 1993 84Q1996 90 1998 95Q1996 105 1995 116Q1994 127 1988 135Q1988 139 1989 141Q1990 144 1990 147Q1990 154 1987 162Q1984 170 1982 178Q1980 186 1979 193Q1979 200 1984 204Q1976 212 1975 218Q1975 225 1973 235Q1971 240 1969 243Q1967 247 1965 252Q1963 262 1964 272Q1966 283 1961 293Q1960 295 1959 297Q1958 300 1958 303Q1958 308 1959 312Q1960 316 1960 321Q1960 342 1959 363Q1958 384 1958 405Q1958 409 1958 412Q1959 415 1959 418Q1959 423 1956 428Q1960 439 1956 449Q1952 460 1946 470Q1948 475 1947 481Q1947 487 1947 492Q1947 503 1952 506Q1958 509 1958 517Q1970 518 1977 532Q1984 532 1988 535Q1993 539 1999 541Q2005 535 2014 535Q2021 535 2027 537Q2033 540 2040 541Q2049 543 2058 542Q2067 541 2077 541Q2082 541 2086 542Q2091 544 2096 544Q2099 544 2102 542Q2105 541 2109 541Q2123 541 2136 545Q2150 549 2163 541Q2171 543 2175 544Q2180 546 2188 541Q2193 543 2197 543Q2201 544 2206 546Q2213 546 2219 543Q2225 541 2232 541Q2237 541 2241 542Q2245 544 2250 544Q2261 544 2270 540Q2280 536 2292 539Q2300 533 2311 525Q2323 518 2333 528Q2336 526 2338 524Q2341 522 2342 517Q2349 515 2351 517Q2354 519 2359 519Q2364 514 2366 514Q2368 514 2375 514Q2384 509 2386 509Q2389 504 2393 503Q2398 502 2399 497Q2416 495 2425 487Q2435 479 2441 464Q2443 459 2453 459Q2452 443 2458 437Q2465 432 2478 426Q2477 418 2476 410Q2476 403 2476 395Q2478 379 2472 372Q2466 366 2468 354Q2465 353 2458 353Q2458 346 2461 342Q2445 336 2436 322Q2427 308 2414 300L2414 290Q2412 288 2409 288Q2406 289 2404 289Q2404 283 2401 278Q2398 273 2398 268Q2391 264 2384 263Q2385 257 2388 250Q2392 244 2399 242Q2401 240 2402 237Q2403 234 2405 232Q2407 230 2409 229Q2412 229 2414 227Q2419 223 2421 218Q2424 213 2429 210Q2438 203 2448 198Q2458 194 2466 183Q2470 171 2476 164Q2482 158 2489 150Q2496 143 2503 136Q2510 130 2513 128Q2513 122 2512 120Q2512 119 2518 115Q2519 109 2518 99Q2518 90 2517 80Q2517 70 2518 62Q2519 54 2523 51ZM2368 418Q2363 418 2357 419Q2352 421 2346 420Q2346 421 2342 424Q2338 427 2333 430Q2328 434 2323 437Q2319 440 2318 440Q2314 441 2310 440Q2306 440 2302 440Q2293 440 2287 445Q2281 450 2273 452Q2271 453 2268 452Q2265 452 2263 452Q2259 452 2256 454Q2253 457 2249 457Q2245 457 2242 456Q2239 455 2235 455Q2230 455 2224 458Q2219 461 2213 458Q2205 466 2193 465Q2182 465 2171 467Q2166 468 2160 470Q2154 472 2149 472Q2145 472 2142 469Q2139 467 2136 467Q2133 467 2130 468Q2127 470 2124 470Q2110 470 2098 464Q2087 459 2071 465Q2059 454 2042 444Q2043 417 2042 390Q2041 386 2040 382Q2039 378 2039 374Q2039 371 2042 368Q2045 366 2047 364Q2042 359 2041 354Q2041 349 2042 343Q2043 338 2045 333Q2047 328 2047 323Q2044 320 2043 311Q2043 302 2045 291Q2047 281 2050 271Q2054 262 2059 258Q2070 265 2080 263Q2091 261 2102 266Q2106 268 2109 269Q2113 271 2117 271Q2123 271 2128 269Q2134 268 2140 268Q2148 268 2156 268Q2164 269 2172 269Q2183 277 2195 277Q2208 277 2221 279Q2233 281 2243 285Q2253 290 2267 288Q2276 298 2279 303Q2282 308 2287 311Q2293 309 2296 310Q2299 311 2301 312Q2304 314 2308 315Q2312 316 2319 315Q2322 325 2331 327Q2340 330 2344 340Q2349 341 2352 341Q2355 341 2357 345Q2362 360 2367 365Q2373 370 2376 374Q2379 379 2378 387Q2377 395 2368 418ZM3309 28Q3308 25 3305 23Q3302 21 3300 19Q3298 17 3297 14Q3296 11 3299 7Q3297 2 3286 1Q3275 1 3269 -6Q3265 -8 3261 -7Q3258 -5 3254 -8Q3245 -3 3238 4Q3232 12 3221 15Q3220 22 3215 26Q3210 30 3210 36Q3211 49 3208 50Q3205 52 3203 57Q3201 60 3201 63Q3201 67 3197 68Q3199 73 3201 78Q3204 83 3206 88Q3201 99 3193 109Q3185 119 3185 132Q3185 137 3185 141Q3186 145 3186 150Q3186 154 3184 157Q3183 160 3186 164Q3184 170 3181 175Q3179 181 3177 187Q3180 188 3181 194Q3182 201 3181 208Q3180 216 3179 223Q3178 231 3178 234Q3178 238 3179 242Q3180 246 3180 250Q3184 267 3180 279Q3176 291 3176 300Q3176 314 3177 327Q3178 340 3169 354Q3154 347 3151 333L3140 333Q3137 330 3137 328Q3137 327 3138 323Q3134 322 3133 319Q3132 316 3131 313Q3130 310 3126 304Q3122 299 3117 293Q3113 287 3108 281Q3104 275 3102 272Q3101 266 3099 260Q3098 255 3099 249L3087 249Q3084 238 3084 228Q3073 206 3068 193Q3063 180 3052 168Q3054 162 3052 160Q3050 158 3050 153Q3042 145 3037 139Q3032 133 3030 122Q3025 120 3023 116Q3022 113 3020 109Q3019 106 3016 103Q3014 100 3008 99Q3013 92 3012 86Q3012 81 3015 75Q3015 71 3011 70Q3007 70 3005 64Q3003 59 3003 54Q3004 49 3003 44Q3001 39 3000 38Q3000 38 2999 37Q2998 36 2998 33Q2998 31 2998 23Q2990 21 2993 13Q2988 15 2987 11Q2986 8 2987 4Q2982 5 2977 4Q2972 4 2969 -1Q2965 2 2960 0Q2956 -1 2951 -1Q2945 5 2939 4Q2933 3 2925 3Q2920 14 2913 21Q2906 28 2904 42Q2899 47 2896 53Q2894 59 2889 64Q2889 75 2885 85Q2881 96 2871 102Q2870 111 2866 118Q2862 126 2857 133Q2857 140 2854 145Q2852 151 2849 155Q2846 160 2843 165Q2840 170 2839 176Q2835 178 2832 181Q2830 185 2825 187Q2824 192 2822 195Q2821 199 2819 203Q2808 213 2802 226Q2796 239 2785 248Q2786 251 2784 253Q2783 255 2782 258Q2766 271 2757 289Q2749 308 2736 317Q2726 329 2721 336Q2717 343 2709 348Q2701 349 2701 345Q2701 341 2703 336Q2703 333 2702 330Q2701 327 2701 324Q2701 321 2702 318Q2703 316 2703 313Q2703 296 2700 279Q2698 263 2698 246Q2698 244 2699 241Q2700 238 2700 235Q2700 231 2698 228Q2697 225 2697 220Q2697 211 2698 201Q2700 192 2701 183Q2705 181 2706 178Q2708 175 2710 172Q2709 165 2709 158Q2710 151 2713 145Q2711 141 2709 138Q2707 135 2711 131Q2711 126 2714 124Q2717 122 2720 120Q2723 119 2725 117Q2728 115 2728 110Q2728 104 2723 100Q2719 97 2715 93Q2722 77 2723 61Q2720 59 2717 57Q2714 56 2712 52Q2702 41 2704 39Q2707 38 2706 35Q2695 30 2687 21Q2679 13 2667 11Q2660 17 2654 20Q2649 23 2639 21Q2635 24 2634 27Q2633 31 2627 31Q2627 39 2623 42Q2620 45 2617 51Q2619 61 2616 70Q2614 80 2614 90Q2614 100 2615 109Q2617 119 2617 129Q2617 134 2615 138Q2614 142 2614 147Q2614 150 2615 153Q2617 156 2617 159Q2617 162 2615 164Q2613 167 2612 170Q2610 176 2609 182Q2609 188 2609 194Q2609 199 2611 203Q2614 207 2614 212Q2614 221 2612 230Q2611 240 2611 250Q2611 257 2614 261Q2617 266 2617 271Q2617 279 2615 287Q2614 295 2612 303Q2614 319 2614 323Q2614 328 2615 330Q2617 333 2618 335Q2620 337 2620 342Q2620 347 2618 352Q2617 358 2617 363Q2617 375 2619 386Q2622 398 2622 410Q2622 415 2620 418Q2618 421 2617 425Q2620 427 2619 431Q2618 436 2618 439Q2620 452 2617 452Q2614 453 2612 455Q2614 465 2618 470Q2622 476 2623 490Q2623 497 2622 504Q2622 512 2626 519Q2635 521 2638 528Q2641 536 2643 544Q2650 543 2655 550Q2659 549 2664 550Q2670 552 2677 553Q2684 554 2693 552Q2702 551 2713 545L2713 533Q2722 526 2724 513Q2727 501 2731 491Q2733 486 2737 477Q2742 468 2747 459Q2753 450 2759 442Q2765 435 2770 433Q2770 428 2772 423Q2775 419 2775 414Q2778 410 2780 405Q2782 401 2787 398Q2787 388 2792 383Q2798 378 2800 369Q2803 367 2806 366Q2810 366 2813 364Q2817 354 2825 348Q2833 342 2840 334Q2847 325 2853 315Q2859 306 2869 300Q2869 292 2871 285Q2874 279 2882 277Q2880 270 2885 267Q2891 265 2894 260Q2892 253 2895 254Q2898 255 2898 250Q2906 242 2906 238Q2907 235 2909 233Q2913 228 2916 223Q2919 219 2922 214Q2926 210 2929 205Q2932 201 2933 201Q2931 189 2936 181Q2941 173 2948 171Q2955 170 2961 177Q2968 185 2970 205Q2981 210 2982 220Q2983 230 2985 240Q2990 244 2992 249Q2995 254 3000 257Q3002 262 3001 263Q3000 264 2998 268Q3002 269 3002 272Q3003 276 3003 279Q3009 280 3008 284Q3008 288 3016 289Q3014 297 3016 299Q3018 302 3018 309Q3022 311 3021 312Q3021 314 3028 312Q3027 315 3027 320Q3028 325 3025 327Q3027 329 3031 328Q3035 328 3037 328Q3038 339 3044 345Q3051 352 3052 363Q3068 371 3073 380Q3078 390 3087 396Q3086 402 3087 405Q3089 409 3091 411Q3093 414 3095 417Q3097 420 3097 425Q3105 427 3107 434Q3109 442 3117 446Q3115 452 3119 464Q3123 477 3131 477Q3132 491 3138 499Q3144 507 3146 519Q3152 519 3158 522Q3160 530 3166 533Q3172 537 3175 544Q3192 546 3199 552Q3206 559 3216 554Q3220 549 3221 547Q3222 545 3220 539L3233 539Q3235 534 3235 531Q3236 529 3235 524Q3237 520 3240 518Q3244 516 3245 514Q3243 503 3246 491Q3249 479 3244 468Q3251 466 3249 458Q3248 450 3254 446Q3252 443 3251 440Q3250 438 3249 435Q3254 434 3254 432Q3254 431 3253 428Q3253 426 3253 422Q3254 418 3260 411Q3260 409 3257 408Q3255 407 3255 402Q3257 400 3258 397Q3260 394 3262 392Q3257 381 3261 375Q3265 369 3265 362Q3262 348 3264 344Q3267 340 3259 337Q3262 327 3264 316Q3267 306 3267 295Q3267 290 3266 284Q3265 279 3265 274Q3265 269 3267 266Q3270 263 3270 261Q3270 258 3268 257Q3266 256 3268 251Q3268 240 3264 231Q3261 223 3269 214Q3266 207 3268 200Q3270 193 3270 185Q3273 183 3274 180Q3276 178 3278 176Q3274 170 3277 165Q3280 160 3280 154Q3277 152 3277 146Q3278 141 3280 135Q3283 129 3286 123Q3289 117 3290 114Q3289 100 3295 97Q3296 93 3296 89Q3296 85 3301 83Q3299 76 3302 72Q3305 68 3309 63Q3310 46 3307 40Q3304 35 3309 28ZM4008 71Q4007 66 3999 63Q3991 61 3986 56Q3986 50 3983 47Q3980 45 3981 37Q3976 35 3971 28Q3966 21 3961 21Q3954 21 3949 24Q3945 28 3936 26Q3928 41 3914 47Q3907 60 3900 72Q3893 84 3887 97Q3872 110 3863 114Q3854 119 3846 117Q3839 116 3830 110Q3822 104 3807 95Q3797 95 3779 95Q3762 95 3754 99Q3751 100 3748 101Q3746 103 3743 103Q3739 103 3735 101Q3732 100 3728 100Q3724 100 3721 101Q3718 102 3714 103Q3710 103 3707 102Q3705 102 3702 103Q3696 100 3693 97Q3691 95 3687 95Q3673 100 3657 102Q3642 104 3628 112Q3620 114 3619 109Q3618 105 3613 105Q3602 106 3593 104Q3584 103 3573 103Q3568 103 3562 104Q3557 105 3552 105Q3546 105 3541 102Q3536 100 3531 100Q3527 100 3524 101Q3521 103 3516 103Q3511 103 3507 100Q3504 98 3500 98Q3495 98 3491 98Q3487 99 3483 99Q3474 99 3470 95Q3466 92 3464 86Q3463 81 3462 75Q3461 70 3456 66Q3458 51 3455 42Q3452 33 3443 21Q3430 20 3418 17Q3406 15 3393 15Q3385 15 3382 20Q3379 25 3374 30Q3367 36 3363 42Q3360 48 3355 56Q3356 60 3359 62Q3363 65 3366 67Q3364 73 3365 77Q3367 81 3370 85Q3373 89 3375 93Q3378 98 3378 103Q3378 109 3378 111Q3379 113 3380 114Q3381 115 3382 116Q3383 117 3385 121Q3387 125 3386 128Q3385 132 3387 136Q3391 145 3396 152Q3402 160 3407 168Q3409 173 3410 177Q3412 181 3414 185Q3417 193 3425 200L3425 213Q3428 217 3430 220Q3432 223 3437 225Q3436 237 3443 245Q3450 254 3452 265Q3466 273 3475 287Q3485 302 3482 319Q3490 322 3494 330Q3498 338 3506 341Q3506 349 3508 355Q3511 361 3511 369Q3520 374 3523 382Q3527 391 3531 399Q3532 401 3535 406Q3538 412 3541 418Q3544 424 3546 428Q3549 433 3549 435Q3567 465 3570 491Q3576 497 3578 499Q3581 502 3582 504Q3583 507 3583 510Q3583 514 3585 521Q3588 520 3590 523Q3593 527 3596 532Q3600 537 3605 541Q3611 546 3620 546Q3630 546 3639 544Q3648 542 3658 541Q3663 535 3668 530Q3674 525 3679 518L3679 506Q3687 496 3694 485Q3702 475 3714 470Q3713 459 3718 457Q3724 456 3731 451Q3730 442 3732 437Q3735 433 3738 427Q3742 422 3745 417Q3748 413 3749 411Q3754 402 3761 402Q3760 397 3764 395Q3768 394 3766 387Q3775 378 3788 373Q3788 366 3793 360Q3798 355 3803 352Q3804 347 3807 345Q3810 343 3813 341Q3818 338 3820 333Q3823 328 3828 326Q3829 317 3838 305Q3847 294 3857 282Q3867 271 3875 261Q3883 252 3882 247Q3890 242 3897 236Q3905 231 3915 227Q3915 219 3914 215Q3914 212 3915 209Q3916 207 3919 205Q3922 203 3929 198Q3928 193 3933 186Q3935 182 3936 177Q3937 173 3940 168Q3945 160 3953 155Q3962 151 3969 145Q3974 134 3977 123Q3980 112 3984 101Q3991 94 3999 91Q4000 86 4001 80Q4003 74 4008 71ZM3776 259Q3770 260 3767 263Q3764 267 3759 268Q3760 281 3754 282Q3748 283 3741 290Q3741 295 3737 296Q3733 298 3731 302Q3727 313 3726 314Q3725 316 3720 319Q3716 321 3716 324Q3716 327 3708 331Q3704 333 3700 334Q3696 335 3694 339Q3688 350 3679 362Q3671 375 3669 389Q3659 395 3654 403Q3650 411 3636 413Q3628 403 3625 391Q3622 380 3612 372L3612 359Q3607 353 3601 346Q3596 339 3597 331Q3589 329 3589 323Q3589 317 3585 312Q3583 309 3580 308Q3578 307 3578 302Q3573 292 3571 286Q3569 280 3566 275Q3555 270 3557 266Q3559 262 3556 255Q3552 248 3546 245Q3541 243 3543 232Q3532 222 3524 209Q3517 197 3519 182Q3529 183 3539 182Q3549 181 3559 181Q3570 181 3579 185Q3589 189 3600 189Q3613 189 3626 182Q3639 176 3651 182Q3656 180 3659 178Q3662 176 3667 174Q3700 168 3734 179Q3744 175 3749 174Q3752 176 3760 177Q3768 178 3776 179Q3785 180 3791 182Q3798 184 3797 187Q3804 191 3808 191Q3813 191 3813 202Q3813 208 3808 215Q3803 222 3796 229Q3789 237 3783 244Q3777 252 3776 259Z" fill="#603f83" style=""></path></g></g></g></svg>